Coordinates
version=1
nRows=8
nColumns=40
inDegrees=yes

Units are S.I. units (second, meters, Newtons, ...)
If the header above contains a line with 'inDegrees', this indicates whether rotational values are in degrees (yes) or radians (no).

endheader
time	pelvis_tilt	pelvis_list	pelvis_rotation	pelvis_tx	pelvis_ty	pelvis_tz	hip_flexion_r	hip_adduction_r	hip_rotation_r	knee_angle_r	knee_angle_r_beta	ankle_angle_r	subtalar_angle_r	mtp_angle_r	hip_flexion_l	hip_adduction_l	hip_rotation_l	knee_angle_l	knee_angle_l_beta	ankle_angle_l	subtalar_angle_l	mtp_angle_l	lumbar_extension	lumbar_bending	lumbar_rotation	arm_flex_r	arm_add_r	arm_rot_r	elbow_flex_r	pro_sup_r	wrist_flex_r	wrist_dev_r	arm_flex_l	arm_add_l	arm_rot_l	elbow_flex_l	pro_sup_l	wrist_flex_l	wrist_dev_l
      0.00000000	     -2.79129244	     89.84962015	     11.47953781	      0.07207639	      0.31475553	      0.94023212	     27.65608060	     -3.05640963	    -11.31128288	     13.67687263	      0.23870646	    -16.34886969	      0.00000000	      0.00000000	     -8.22106995	      1.89235138	      3.43624565	     14.26962280	      0.24905190	      3.35241478	      0.00000000	      0.00000000	    -11.93907502	      0.24094068	    -11.25357731	     -4.19646910	    -14.73408905	      4.77664339	     37.10285829	     77.98719553	      0.00000000	      0.00000000	      8.74198475	    -26.69719838	     22.97860733	     55.45782338	     73.29476789	      0.00000000	      0.00000000
      0.00400000	     -2.73307164	     89.85145503	     11.41288308	      0.07720041	      0.31468846	      0.93913238	     27.77821563	     -2.90746666	    -10.96674451	     12.76953022	      0.22287035	    -16.51788960	      0.00000000	      0.00000000	     -8.54280542	      1.82722505	      3.38867442	     14.35485400	      0.25053947	      3.57663998	      0.00000000	      0.00000000	    -11.97302087	      0.26585242	    -11.30571361	     -4.16992666	    -14.69262593	      4.70096425	     37.03239435	     77.95222772	      0.00000000	      0.00000000	      8.89561191	    -26.75709555	     23.04709678	     55.50716597	     73.29989951	      0.00000000	      0.00000000
      0.00800000	     -2.71913307	     89.85224961	     11.36447638	      0.08271580	      0.31465271	      0.93794474	     27.95202141	     -2.78210975	    -10.89721162	     12.06586306	      0.21058904	    -16.41198467	      0.00000000	      0.00000000	     -8.91122949	      1.75968119	      3.26141193	     14.40891160	      0.25148295	      3.76453573	      0.00000000	      0.00000000	    -11.95843849	      0.28787469	    -11.31620731	     -4.20149605	    -14.64346104	      4.57299841	     36.96293485	     77.89865978	      0.00000000	      0.00000000	      8.95898946	    -26.79074427	     23.06351627	     55.61778716	     73.31621454	      0.00000000	      0.00000000
      0.01200000	     -2.72245357	     89.85256149	     11.28337221	      0.08802469	      0.31448230	      0.93680765	     28.03850726	     -2.58635730	    -10.52747327	     11.17979481	      0.19512423	    -16.55442147	      0.00000000	      0.00000000	     -9.24099975	      1.71046780	      3.19510659	     14.52002171	      0.25342219	      3.86331549	      0.00000000	      0.00000000	    -11.96815586	      0.29433183	    -11.26950514	     -4.18678185	    -14.62888210	      4.52444510	     36.90487756	     77.82095972	      0.00000000	      0.00000000	      9.10256569	    -26.82855225	     23.13574497	     55.66639194	     73.33978540	      0.00000000	      0.00000000
      0.01600000	     -2.72920112	     89.86009072	     11.26365520	      0.09323800	      0.31448351	      0.93563523	     28.41208351	     -2.53241811	    -10.53232120	     10.97286724	      0.19151266	    -16.52114340	      0.00000000	      0.00000000	     -9.55954713	      1.65706342	      3.16267191	     14.59960760	      0.25481122	      3.87886529	      0.00000000	      0.00000000	    -11.98749188	      0.33280991	    -11.31786425	     -4.15819830	    -14.63586654	      4.49776242	     36.90156574	     77.80763707	      0.00000000	      0.00000000	      9.19787668	    -26.85340032	     23.11444046	     55.66995843	     73.33921408	      0.00000000	      0.00000000
      0.02000000	     -2.68914783	     89.85613089	     11.16810035	      0.09872627	      0.31414894	      0.93453895	     28.22350431	     -2.25665125	     -9.70510433	      9.59989372	      0.16754975	    -16.89493908	      0.00000000	      0.00000000	     -9.83872182	      1.55425459	      2.91015728	     14.82629091	      0.25876759	      4.23801888	      0.00000000	      0.00000000	    -11.99443528	      0.33646694	    -11.27444872	     -4.21715825	    -14.52718036	      4.19985725	     36.85371266	     77.59056422	      0.00000000	      0.00000000	      9.31098413	    -26.91904328	     23.19432571	     55.72419256	     73.39166478	      0.00000000	      0.00000000
      0.02400000	     -2.69390366	     89.86038599	     11.15044049	      0.10424826	      0.31417677	      0.93342765	     28.54004007	     -2.21763348	     -9.72247723	      9.42340986	      0.16446953	    -16.85258312	      0.00000000	      0.00000000	    -10.17323749	      1.49220487	      2.88649642	     14.92079237	      0.26041695	      4.24662914	      0.00000000	      0.00000000	    -11.97658108	      0.37216204	    -11.31072016	     -4.23475524	    -14.52793063	      4.19763745	     36.86597041	     77.58064554	      0.00000000	      0.00000000	      9.36354403	    -26.91338911	     23.18990976	     55.72577203	     73.39531238	      0.00000000	      0.00000000
      0.02800000	     -2.65284037	     89.85548933	     11.10010032	      0.10983406	      0.31401109	      0.93235167	     28.53294656	     -2.04592922	     -9.60493453	      8.61797038	      0.15041196	    -16.89167345	      0.00000000	      0.00000000	    -10.44795278	      1.39716943	      2.74808072	     15.15378866	      0.26448351	      4.44838410	      0.00000000	      0.00000000	    -11.96238188	      0.39372934	    -11.30855814	     -4.32113799	    -14.47221069	      4.05177873	     36.88783842	     77.40296334	      0.00000000	      0.00000000	      9.46244595	    -26.94554452	     23.26596326	     55.70531459	     73.43378809	      0.00000000	      0.00000000
